<svg data-v-423bf9ae="" xmlns="http://www.w3.org/2000/svg" viewBox="0 0 187.61692650334075 60" class="font"><!----><!----><!----><g data-v-423bf9ae="" id="e078fe6c-62d4-46f1-996f-f9947801d095" fill="black" transform="matrix(5.701559066772461,0,0,5.701559066772461,-0.9799554347991943,-5.567928791046143)"><path d="M1.68 5.77L1.54 5.94L1.54 5.94Q1.74 6.05 1.94 6.16L1.94 6.16L1.94 6.16Q2.14 6.27 2.28 6.38L2.28 6.38L2.28 6.38Q3.07 7.07 3.85 7.74L3.85 7.74L3.85 7.74Q4.63 8.41 5.38 9.14L5.38 9.14L5.38 9.14Q5.46 9.23 5.52 9.27L5.52 9.27L5.49 9.30L5.49 9.30Q5.50 9.44 5.41 9.58L5.41 9.58L5.41 9.58Q5.32 9.73 5.19 9.86L5.19 9.86L5.19 9.86Q5.05 9.98 4.90 10.07L4.90 10.07L4.90 10.07Q4.75 10.15 4.62 10.16L4.62 10.16L4.62 10.16Q4.35 9.91 4.07 9.69L4.07 9.69L4.07 9.69Q3.79 9.46 3.51 9.21L3.51 9.21L3.51 9.21Q3.11 8.85 2.72 8.47L2.72 8.47L2.72 8.47Q2.32 8.09 1.88 7.76L1.88 7.76L1.88 7.76Q1.76 7.67 1.60 7.59L1.60 7.59L1.60 7.59Q1.43 7.52 1.26 7.43L1.26 7.43L1.26 7.43Q1.09 7.35 0.95 7.25L0.95 7.25L0.95 7.25Q0.81 7.14 0.74 7.01L0.74 7.01L0.83 6.93L0.83 6.93Q0.76 6.89 0.68 6.85L0.68 6.85L0.68 6.85Q0.60 6.82 0.53 6.76L0.53 6.76L0.53 6.76Q0.45 6.79 0.42 6.79L0.42 6.79L0.42 6.79Q0.32 6.80 0.30 6.78L0.30 6.78L0.30 6.78Q0.28 6.76 0.29 6.66L0.29 6.66L0.29 6.66Q0.29 6.64 0.32 6.58L0.32 6.58L0.32 6.58Q0.28 6.54 0.24 6.50L0.24 6.50L0.24 6.50Q0.20 6.47 0.17 6.41L0.17 6.41L0.17 6.41Q0.17 6.26 0.33 6.03L0.33 6.03L0.33 6.03Q0.49 5.80 0.69 5.66L0.69 5.66L0.69 5.66Q0.88 5.45 1.14 5.19L1.14 5.19L1.14 5.19Q1.40 4.93 1.71 4.65L1.71 4.65L1.71 4.65Q2.14 4.21 2.59 3.79L2.59 3.79L2.59 3.79Q3.04 3.37 3.50 2.95L3.50 2.95L3.50 2.95Q3.67 2.80 3.84 2.65L3.84 2.65L3.84 2.65Q4.00 2.49 4.17 2.34L4.17 2.34L4.17 2.34Q4.30 2.17 4.43 1.99L4.43 1.99L4.43 1.99Q4.56 1.82 4.71 1.67L4.71 1.67L4.71 1.67Q4.86 1.53 5.02 1.44L5.02 1.44L5.02 1.44Q5.18 1.34 5.36 1.34L5.36 1.34L5.36 1.34Q5.39 1.34 5.40 1.35L5.40 1.35L5.40 1.35Q5.40 1.36 5.43 1.36L5.43 1.36L5.43 1.36Q5.43 1.39 5.44 1.40L5.44 1.40L5.44 1.40Q5.45 1.41 5.45 1.44L5.45 1.44L5.45 1.44Q5.59 1.41 5.59 1.50L5.59 1.50L5.59 1.50Q5.59 1.58 5.52 1.69L5.52 1.69L5.52 1.69Q5.45 1.79 5.36 1.90L5.36 1.90L5.36 1.90Q5.26 2.00 5.24 2.04L5.24 2.04L5.24 2.04Q5.22 2.04 5.22 2.06L5.22 2.06L5.22 2.06Q5.17 2.13 5.13 2.17L5.13 2.17L5.13 2.17Q5.10 2.21 5.07 2.24L5.07 2.24L5.07 2.24Q4.96 2.34 4.86 2.42L4.86 2.42L4.86 2.42Q4.76 2.51 4.65 2.60L4.65 2.60L4.65 2.60Q4.42 2.83 4.21 3.05L4.21 3.05L4.21 3.05Q3.99 3.28 3.75 3.50L3.75 3.50L3.75 3.50Q3.40 3.82 3.03 4.14L3.03 4.14L3.03 4.14Q2.66 4.45 2.37 4.82L2.37 4.82L2.37 4.82Q2.23 4.98 2.04 5.24L2.04 5.24L2.04 5.24Q1.86 5.50 1.65 5.77L1.65 5.77L1.68 5.77ZM7.17 9.97L7.17 9.97L7.17 9.97Q7.17 9.93 7.20 9.87L7.20 9.87L7.20 9.87Q7.14 9.93 7.08 9.97L7.08 9.97L7.08 9.97Q7.03 10.02 6.96 10.08L6.96 10.08L6.96 10.08Q6.89 10.19 6.85 10.30L6.85 10.30L6.85 10.30Q6.83 10.32 6.83 10.35L6.83 10.35L6.82 10.36L6.82 10.36Q6.78 10.42 6.63 10.59L6.63 10.59L6.63 10.59Q6.48 10.77 6.32 10.91L6.32 10.91L6.32 10.91Q6.16 11.05 6.04 11.09L6.04 11.09L6.04 11.09Q5.92 11.13 5.94 10.93L5.94 10.93L5.94 10.93Q6.10 10.42 6.31 10.03L6.31 10.03L6.31 10.03Q6.52 9.65 6.76 9.32L6.76 9.32L6.76 9.32Q6.80 9.21 6.87 9.11L6.87 9.11L6.87 9.11Q6.94 9.02 7.03 8.90L7.03 8.90L7.03 8.90Q7.07 8.83 7.11 8.75L7.11 8.75L7.11 8.75Q7.15 8.67 7.21 8.60L7.21 8.60L7.21 8.60Q7.25 8.48 7.29 8.44L7.29 8.44L7.29 8.44Q7.55 7.91 7.87 7.46L7.87 7.46L7.87 7.46Q8.19 7 8.53 6.52L8.53 6.52L8.53 6.52Q8.64 6.37 8.80 6.13L8.80 6.13L8.80 6.13Q8.96 5.88 9.14 5.60L9.14 5.60L9.14 5.60Q9.38 5.24 9.60 4.86L9.60 4.86L9.60 4.86Q9.81 4.48 10.05 4.12L10.05 4.12L10.05 4.12Q10.33 3.65 10.62 3.19L10.62 3.19L10.62 3.19Q10.91 2.73 11.24 2.30L11.24 2.30L11.24 2.30Q11.27 2.27 11.33 2.21L11.33 2.21L11.33 2.21Q11.38 2.14 11.47 2.07L11.47 2.07L11.47 2.07Q11.66 1.75 12.00 1.47L12.00 1.47L12.00 1.47Q12.03 1.44 12.08 1.40L12.08 1.40L12.08 1.40Q12.14 1.36 12.21 1.32L12.21 1.32L12.21 1.32Q12.28 1.27 12.34 1.25L12.34 1.25L12.34 1.25Q12.40 1.23 12.45 1.26L12.45 1.26L12.45 1.26Q12.50 1.22 12.56 1.18L12.56 1.18L12.56 1.18Q12.61 1.13 12.68 1.09L12.68 1.09L12.68 1.09Q12.75 1.05 12.87 0.99L12.87 0.99L12.87 0.99Q12.99 0.94 13.02 1.06L13.02 1.06L13.02 1.06Q13.05 1.26 12.96 1.41L12.96 1.41L12.96 1.41Q12.87 1.55 12.73 1.68L12.73 1.68L12.73 1.68Q12.80 1.74 12.70 1.87L12.70 1.87L12.70 1.87Q12.60 2.00 12.49 2.14L12.49 2.14L12.49 2.14Q12.46 2.20 12.44 2.25L12.44 2.25L12.44 2.25Q12.42 2.31 12.39 2.37L12.39 2.37L12.39 2.37Q12.19 2.72 11.99 3.05L11.99 3.05L11.99 3.05Q11.79 3.39 11.56 3.71L11.56 3.71L11.56 3.71Q11.35 4.27 11.10 4.80L11.10 4.80L11.10 4.80Q10.85 5.31 10.54 5.77L10.54 5.77L10.54 5.77Q10.22 6.24 9.88 6.70L9.88 6.70L9.88 6.70Q9.55 7.15 9.21 7.61L9.21 7.61L9.21 7.61Q8.86 8.06 8.57 8.54L8.57 8.54L8.57 8.54Q8.54 8.57 8.54 8.58L8.54 8.58L8.78 8.51L8.78 8.51Q8.64 8.69 8.51 8.86L8.51 8.86L8.51 8.86Q8.37 9.03 8.22 9.18L8.22 9.18L8.22 9.18Q8.18 9.27 8.13 9.35L8.13 9.35L8.13 9.35Q8.09 9.44 8.04 9.51L8.04 9.51L8.04 9.51Q7.90 9.70 7.70 9.89L7.70 9.89L7.70 9.89Q7.50 10.08 7.27 10.11L7.27 10.11L7.21 10.11L7.21 10.11Q7.17 10.08 7.17 9.97ZM7.42 9.49L7.42 9.49L7.42 9.49Q7.46 9.42 7.51 9.38L7.51 9.38L7.51 9.38Q7.56 9.34 7.60 9.28L7.60 9.28L7.60 9.28Q7.76 9.02 7.91 8.76L7.91 8.76L7.91 8.76Q8.06 8.50 8.25 8.25L8.25 8.25L8.25 8.25Q8.32 8.15 8.43 8.01L8.43 8.01L8.43 8.01Q8.27 8.18 8.12 8.33L8.12 8.33L8.12 8.33Q7.97 8.48 7.81 8.64L7.81 8.64L7.81 8.64Q7.70 8.89 7.56 9.09L7.56 9.09L7.56 9.09Q7.53 9.14 7.51 9.19L7.51 9.19L7.51 9.19Q7.49 9.24 7.46 9.30L7.46 9.30L7.46 9.30Q7.45 9.35 7.44 9.39L7.44 9.39L7.44 9.39Q7.43 9.44 7.42 9.49ZM11.80 1.69L11.80 1.69L11.80 1.69Q11.76 1.72 11.76 1.74L11.76 1.74L11.76 1.74Q11.76 1.75 11.73 1.82L11.73 1.82L11.73 1.82Q11.87 1.68 11.92 1.62L11.92 1.62L11.92 1.62Q11.97 1.57 11.80 1.69ZM12.59 1.33L12.59 1.33L12.59 1.33Q12.57 1.34 12.56 1.34L12.56 1.34L12.56 1.34Q12.57 1.34 12.59 1.33ZM17.68 8.79L17.95 8.61L17.95 8.61Q17.93 8.60 17.84 8.48L17.84 8.48L17.84 8.48Q17.75 8.36 17.75 8.34L17.75 8.34L17.75 8.34Q17.44 8.27 17.12 8.21L17.12 8.21L17.12 8.21Q16.80 8.15 16.53 8.09L16.53 8.09L16.53 8.09Q16.27 8.02 16.09 7.98L16.09 7.98L16.09 7.98Q15.92 7.94 15.89 7.92L15.89 7.92L15.89 7.92Q15.82 7.87 15.84 7.78L15.84 7.78L15.84 7.78Q15.86 7.70 15.93 7.60L15.93 7.60L15.93 7.60Q15.74 7.59 15.54 7.57L15.54 7.57L15.54 7.57Q15.34 7.56 15.15 7.53L15.15 7.53L15.13 7.56L15.13 7.56Q15.08 7.55 15.04 7.54L15.04 7.54L15.04 7.54Q14.99 7.53 14.94 7.52L14.94 7.52L14.94 7.52Q14.78 7.50 14.64 7.49L14.64 7.49L14.64 7.49Q14.49 7.48 14.34 7.45L14.34 7.45L14.34 7.45Q14.25 7.38 14.31 7.25L14.31 7.25L14.31 7.25Q14.36 7.13 14.49 7L14.49 7L14.49 7Q14.39 6.99 14.31 6.98L14.31 6.98L14.31 6.98Q14.22 6.97 14.14 6.99L14.14 6.99L14.14 6.99Q13.96 7.03 13.73 7.03L13.73 7.03L13.73 7.03Q13.71 7.03 13.67 7.01L13.67 7.01L13.67 7.01Q13.64 6.99 13.65 7L13.65 7L13.65 7Q13.58 6.93 13.61 6.87L13.61 6.87L13.61 6.87Q13.64 6.80 13.66 6.73L13.66 6.73L13.66 6.73Q13.78 6.51 13.93 6.36L13.93 6.36L13.93 6.36Q14.08 6.22 14.28 6.10L14.28 6.10L14.28 6.10Q14.24 6.03 14.25 5.98L14.25 5.98L14.04 6.02L14.04 6.02Q13.89 6.05 13.90 5.96L13.90 5.96L13.90 5.96Q13.92 5.88 13.97 5.77L13.97 5.77L13.97 5.77Q14.27 5.26 14.79 4.96L14.79 4.96L14.79 4.96Q15.32 4.66 15.94 4.50L15.94 4.50L15.94 4.50Q16.56 4.34 17.20 4.30L17.20 4.30L17.20 4.30Q17.84 4.27 18.37 4.31L18.37 4.31L18.37 4.31Q18.56 4.33 18.73 4.40L18.73 4.40L18.73 4.40Q18.89 4.40 19.02 4.42L19.02 4.42L19.02 4.42Q19.15 4.44 19.25 4.49L19.25 4.49L19.25 4.49Q19.40 4.51 19.55 4.53L19.55 4.53L19.55 4.53Q19.70 4.55 19.81 4.62L19.81 4.62L19.81 4.62Q19.84 4.73 19.78 4.84L19.78 4.84L19.78 4.84Q19.73 4.94 19.64 5.04L19.64 5.04L19.64 5.04Q19.56 5.14 19.47 5.21L19.47 5.21L19.47 5.21Q19.38 5.29 19.31 5.36L19.31 5.36L19.31 5.36Q19.08 5.52 18.84 5.57L18.84 5.57L18.84 5.57Q18.59 5.63 18.34 5.64L18.34 5.64L18.17 5.80L18.17 5.80Q18.13 5.74 18.07 5.63L18.07 5.63L18.07 5.63Q17.84 5.61 17.61 5.59L17.61 5.59L17.61 5.59Q17.37 5.57 17.15 5.56L17.15 5.56L17.15 5.56Q16.84 5.61 16.56 5.68L16.56 5.68L16.56 5.68Q16.56 5.77 16.57 5.84L16.57 5.84L16.57 5.84Q16.58 5.92 16.59 6.01L16.59 6.01L16.59 6.01Q16.91 6.08 17.22 6.15L17.22 6.15L17.22 6.15Q17.53 6.23 17.79 6.29L17.79 6.29L17.79 6.29Q18.13 6.40 18.45 6.46L18.45 6.46L18.45 6.46Q18.76 6.52 19.03 6.59L19.03 6.59L19.03 6.59Q19.29 6.66 19.50 6.75L19.50 6.75L19.50 6.75Q19.70 6.85 19.82 7.01L19.82 7.01L19.82 7.01Q20.08 7.25 20.14 7.62L20.14 7.62L20.14 7.62Q20.20 7.98 20.09 8.32L20.09 8.32L20.09 8.32Q20.20 8.39 20.08 8.56L20.08 8.56L20.08 8.56Q19.95 8.74 19.75 8.89L19.75 8.89L19.75 8.89Q19.57 9.13 19.34 9.30L19.34 9.30L19.34 9.30Q19.11 9.46 18.83 9.59L18.83 9.59L18.83 9.59Q18.33 9.94 17.68 10.18L17.68 10.18L17.68 10.18Q17.19 10.40 16.69 10.56L16.69 10.56L16.69 10.56Q16.04 10.81 15.44 10.95L15.44 10.95L15.44 10.95Q14.84 11.09 14.48 10.93L14.48 10.93L14.48 10.93Q14.42 10.88 14.45 10.81L14.45 10.81L14.45 10.81Q14.49 10.64 14.55 10.56L14.55 10.56L14.55 10.56Q14.31 10.63 14.07 10.70L14.07 10.70L14.07 10.70Q13.83 10.78 13.66 10.81L13.66 10.81L13.66 10.81Q13.59 10.85 13.59 10.82L13.59 10.82L13.59 10.82Q13.55 10.84 13.51 10.84L13.51 10.84L13.51 10.84Q13.48 10.84 13.45 10.84L13.45 10.84L13.45 10.84Q13.40 10.78 13.42 10.70L13.42 10.70L13.42 10.70Q13.44 10.63 13.49 10.54L13.49 10.54L13.49 10.54Q13.54 10.46 13.60 10.39L13.60 10.39L13.60 10.39Q13.66 10.32 13.71 10.28L13.71 10.28L14.00 10.02L14.00 10.02Q13.87 9.94 13.97 9.72L13.97 9.72L13.97 9.72Q14.07 9.51 14.27 9.30L14.27 9.30L14.27 9.30Q14.48 9.10 14.74 8.98L14.74 8.98L14.74 8.98Q14.99 8.86 15.20 8.99L15.20 8.99L15.20 8.99Q15.15 9.04 15.10 9.09L15.10 9.09L15.10 9.09Q15.05 9.14 15.01 9.20L15.01 9.20L15.01 9.20Q15.12 9.24 15.26 9.24L15.26 9.24L15.26 9.24Q15.41 9.24 15.51 9.24L15.51 9.24L15.51 9.24Q15.76 9.25 16.02 9.25L16.02 9.25L16.02 9.25Q16.28 9.24 16.53 9.23L16.53 9.23L16.53 9.23Q16.67 9.16 16.81 9.16L16.81 9.16L16.81 9.16Q16.95 9.16 17.09 9.13L17.09 9.13L17.09 9.13Q17.23 9.11 17.38 9.04L17.38 9.04L17.38 9.04Q17.53 8.97 17.68 8.79L17.68 8.79ZM21.28 6.82L21.28 6.82L21.28 6.82Q21.48 6.48 21.73 6.17L21.73 6.17L21.73 6.17Q21.99 5.87 22.30 5.62L22.30 5.62L22.30 5.62Q22.60 5.38 22.93 5.21L22.93 5.21L22.93 5.21Q23.27 5.05 23.60 5.00L23.60 5.00L23.60 5.00Q24.00 4.73 24.44 4.55L24.44 4.55L24.44 4.55Q24.88 4.37 25.19 4.52L25.19 4.52L25.19 4.52Q25.58 4.75 25.80 5.05L25.80 5.05L25.80 5.05Q25.96 5.10 26.08 5.18L26.08 5.18L26.08 5.18Q26.12 5.22 26.17 5.26L26.17 5.26L26.17 5.26Q26.21 5.31 26.25 5.36L26.25 5.36L26.25 5.36Q26.40 5.22 26.53 5.17L26.53 5.17L26.53 5.17Q26.66 5.11 26.68 5.25L26.68 5.25L26.68 5.25Q26.74 5.66 26.75 6.05L26.75 6.05L26.75 6.05Q26.77 6.45 26.75 6.86L26.75 6.86L26.75 6.86Q26.77 6.92 26.77 6.96L26.77 6.96L26.77 6.96Q26.78 7 26.78 7.04L26.78 7.04L26.78 7.04Q26.78 7.31 26.82 7.60L26.82 7.60L26.82 7.60Q26.85 7.90 26.73 8.12L26.73 8.12L26.73 8.12Q26.73 8.19 26.72 8.27L26.72 8.27L26.72 8.27Q26.71 8.34 26.71 8.41L26.71 8.41L26.71 8.41Q26.78 8.95 26.80 9.39L26.80 9.39L26.80 9.39Q26.82 9.53 26.84 9.67L26.84 9.67L26.84 9.67Q26.87 9.80 26.88 9.93L26.88 9.93L26.88 9.93Q26.89 10.01 26.95 10.08L26.95 10.08L26.89 10.14L26.89 10.14Q26.89 10.39 26.84 10.62L26.84 10.62L26.84 10.62Q26.78 10.85 26.61 11.06L26.61 11.06L26.61 11.06Q26.57 11.10 26.48 11.19L26.48 11.19L26.48 11.19Q26.39 11.28 26.29 11.37L26.29 11.37L26.29 11.37Q26.18 11.45 26.08 11.49L26.08 11.49L26.08 11.49Q25.98 11.52 25.91 11.45L25.91 11.45L25.91 11.45Q25.90 11.44 25.90 11.42L25.90 11.42L25.90 11.42Q25.90 11.42 25.89 11.41L25.89 11.41L25.89 11.41Q25.87 11.41 25.86 11.42L25.86 11.42L25.82 11.42L25.82 11.42Q25.72 11.42 25.69 11.40L25.69 11.40L25.69 11.40Q25.62 11.19 25.62 10.91L25.62 10.91L25.62 10.91Q25.62 10.64 25.59 10.44L25.59 10.44L25.59 10.44Q25.56 10.23 25.54 10.02L25.54 10.02L25.54 10.02Q25.52 9.81 25.49 9.59L25.49 9.59L25.49 9.59Q25.13 9.83 24.70 10.00L24.70 10.00L24.70 10.00Q24.26 10.16 23.77 10.30L23.77 10.30L23.77 10.30Q23.69 10.33 23.61 10.35L23.61 10.35L23.61 10.35Q23.53 10.37 23.45 10.40L23.45 10.40L23.45 10.40Q23.24 10.51 23.02 10.61L23.02 10.61L23.02 10.61Q22.81 10.70 22.59 10.74L22.59 10.74L22.59 10.74Q22.37 10.78 22.16 10.75L22.16 10.75L22.16 10.75Q21.95 10.72 21.74 10.57L21.74 10.57L21.74 10.57Q21.36 10.30 21.06 9.93L21.06 9.93L21.06 9.93Q20.75 9.56 20.59 9.13L20.59 9.13L20.59 9.13Q20.54 8.99 20.55 8.82L20.55 8.82L20.55 8.82Q20.57 8.65 20.62 8.47L20.62 8.47L20.62 8.47Q20.54 8.13 20.59 7.92L20.59 7.92L20.59 7.92Q20.68 7.62 20.86 7.34L20.86 7.34L20.86 7.34Q21.04 7.07 21.28 6.82ZM22.81 9.21L22.81 9.21L22.81 9.21Q22.97 9.24 23.30 9.21L23.30 9.21L23.30 9.21Q23.62 9.17 24.00 9.07L24.00 9.07L24.00 9.07Q24.37 8.97 24.75 8.82L24.75 8.82L24.75 8.82Q25.13 8.67 25.40 8.47L25.40 8.47L25.40 8.47Q25.37 8.15 25.35 7.81L25.35 7.81L25.35 7.81Q25.33 7.48 25.30 7.14L25.30 7.14L25.30 7.14Q25.28 7.03 25.28 6.92L25.28 6.92L25.28 6.92Q25.28 6.79 25.27 6.68L25.27 6.68L25.21 6.72L25.21 6.72Q25.20 6.65 25.20 6.57L25.20 6.57L25.20 6.57Q25.20 6.48 25.20 6.41L25.20 6.41L25.20 6.41Q25.17 6.34 25.14 6.28L25.14 6.28L25.14 6.28Q25.10 6.22 25.07 6.15L25.07 6.15L24.95 6.26L24.95 6.26Q24.91 6.19 24.91 6.10L24.91 6.10L24.91 6.10Q24.91 6.01 24.88 5.94L24.88 5.94L24.88 5.94Q24.63 5.85 24.40 5.80L24.40 5.80L24.40 5.80Q24.18 5.75 23.97 5.74L23.97 5.74L23.97 5.74Q23.77 5.74 23.58 5.77L23.58 5.77L23.58 5.77Q23.39 5.80 23.20 5.84L23.20 5.84L23.20 5.84Q22.64 6.06 22.09 6.82L22.09 6.82L22.09 6.82Q21.90 7.06 21.71 7.39L21.71 7.39L21.71 7.39Q21.69 7.81 21.80 8.22L21.80 8.22L21.80 8.22Q21.88 8.34 21.99 8.51L21.99 8.51L21.99 8.51Q22.09 8.68 22.22 8.83L22.22 8.83L22.22 8.83Q22.34 8.97 22.49 9.09L22.49 9.09L22.49 9.09Q22.64 9.20 22.81 9.21ZM28.83 1.92L28.50 2.25L28.50 2.25Q28.57 2.31 28.66 2.32L28.66 2.32L28.66 2.32Q28.90 2.42 29.14 2.48L29.14 2.48L29.14 2.48Q29.39 2.53 29.62 2.65L29.62 2.65L29.62 2.65Q30.46 3.05 31.25 3.57L31.25 3.57L31.25 3.57Q32.03 4.09 32.68 4.77L32.68 4.77L32.68 4.77Q32.70 4.75 32.75 4.74L32.75 4.74L32.75 4.74Q32.79 4.73 32.82 4.70L32.82 4.70L32.82 4.70Q32.96 4.68 32.98 4.70L32.98 4.70L32.98 4.70Q33.01 4.73 32.98 4.87L32.98 4.87L32.94 4.96L32.94 4.96Q32.97 4.96 33.00 4.96L33.00 4.96L33.00 4.96Q33.03 4.97 33.07 4.98L33.07 4.98L33.07 4.98Q33.10 5.12 33.02 5.26L33.02 5.26L33.02 5.26Q32.94 5.40 32.82 5.52L32.82 5.52L32.82 5.52Q32.69 5.64 32.54 5.74L32.54 5.74L32.54 5.74Q32.40 5.84 32.28 5.88L32.28 5.88L32.28 5.88Q32.16 5.91 32.12 5.88L32.12 5.88L32.12 5.88Q32.07 5.88 32.05 5.87L32.05 5.87L32.00 5.82L31.99 5.82L31.99 5.82Q31.96 5.84 31.94 5.84L31.94 5.84L31.94 5.84Q31.92 5.85 31.89 5.87L31.89 5.87L31.89 5.87Q31.49 6.31 31.05 6.71L31.05 6.71L31.05 6.71Q30.62 7.11 30.21 7.50L30.21 7.50L30.21 7.50Q29.67 8.04 29.11 8.59L29.11 8.59L29.11 8.59Q28.55 9.14 27.87 9.52L27.87 9.52L27.87 9.52Q27.61 9.63 27.62 9.52L27.62 9.52L27.62 9.52Q27.64 9.41 27.73 9.25L27.73 9.25L27.73 9.25Q27.72 9.25 27.71 9.27L27.71 9.27L27.71 9.27Q27.62 9.32 27.54 9.37L27.54 9.37L27.54 9.37Q27.45 9.41 27.40 9.41L27.40 9.41L27.40 9.41Q27.34 9.42 27.33 9.37L27.33 9.37L27.33 9.37Q27.31 9.31 27.37 9.17L27.37 9.17L27.37 9.17Q27.79 8.51 28.21 8.14L28.21 8.14L28.21 8.14Q28.63 7.77 29.09 7.46L29.09 7.46L29.09 7.46Q29.22 7.35 29.34 7.24L29.34 7.24L29.34 7.24Q29.46 7.13 29.57 7.01L29.57 7.01L29.57 7.01Q30.02 6.59 30.47 6.17L30.47 6.17L30.47 6.17Q30.93 5.74 31.43 5.36L31.43 5.36L31.43 5.36Q31.28 5.21 31.14 5.07L31.14 5.07L31.14 5.07Q31.01 4.93 30.91 4.84L30.91 4.84L30.91 4.84Q30.41 4.47 29.81 4.07L29.81 4.07L29.81 4.07Q29.20 3.68 28.60 3.49L28.60 3.49L28.60 3.49Q28.48 3.44 28.31 3.41L28.31 3.41L28.31 3.41Q28.14 3.37 27.97 3.32L27.97 3.32L27.97 3.32Q27.80 3.26 27.65 3.18L27.65 3.18L27.65 3.18Q27.50 3.11 27.40 3.00L27.40 3.00L27.40 3.00Q27.23 2.80 27.34 2.57L27.34 2.57L27.34 2.57Q27.44 2.34 27.68 2.16L27.68 2.16L27.68 2.16Q27.92 1.97 28.24 1.90L28.24 1.90L28.24 1.90Q28.56 1.82 28.83 1.92L28.83 1.92Z"></path></g><!----><!----></svg>